<svg xmlns="http://www.w3.org/2000/svg" xmlns:xlink="http://www.w3.org/1999/xlink" width="1080" zoomAndPan="magnify" viewBox="0 0 810 809.999993" height="1080" preserveAspectRatio="xMidYMid meet" version="1.0"><defs><clipPath id="1a7ddbe217"><path d="M 401 385 L 739.765625 385 L 739.765625 581 L 401 581 Z M 401 385 " clip-rule="nonzero"/></clipPath></defs><path fill="#fcd031" d="M 521.503906 359.148438 C 521.503906 360.832031 521.460938 362.511719 521.375 364.191406 C 521.292969 365.875 521.164062 367.550781 520.996094 369.226562 C 520.828125 370.898438 520.613281 372.570312 520.363281 374.234375 C 520.109375 375.898438 519.8125 377.554688 519.476562 379.203125 C 519.140625 380.855469 518.761719 382.496094 518.34375 384.128906 C 517.921875 385.761719 517.464844 387.382812 516.960938 388.992188 C 516.460938 390.601562 515.921875 392.199219 515.339844 393.785156 C 514.757812 395.367188 514.136719 396.9375 513.476562 398.492188 C 512.816406 400.046875 512.117188 401.582031 511.378906 403.105469 C 510.640625 404.625 509.863281 406.128906 509.050781 407.613281 C 508.238281 409.09375 507.386719 410.558594 506.5 412.003906 C 505.613281 413.445312 504.6875 414.867188 503.730469 416.265625 C 502.773438 417.664062 501.777344 419.039062 500.75 420.390625 C 499.722656 421.742188 498.660156 423.070312 497.566406 424.371094 C 496.46875 425.667969 495.34375 426.945312 494.183594 428.191406 C 493.027344 429.4375 491.835938 430.65625 490.617188 431.84375 C 489.394531 433.035156 488.144531 434.195312 486.867188 435.324219 C 485.585938 436.453125 484.28125 437.554688 482.945312 438.621094 C 481.613281 439.6875 480.253906 440.722656 478.867188 441.726562 C 477.480469 442.726562 476.070312 443.695312 474.632812 444.628906 C 473.199219 445.566406 471.742188 446.464844 470.261719 447.328125 C 468.78125 448.195312 467.28125 449.023438 465.757812 449.816406 C 464.234375 450.609375 462.695312 451.367188 461.132812 452.085938 C 459.574219 452.804688 457.996094 453.488281 456.402344 454.132812 C 454.808594 454.773438 453.199219 455.378906 451.574219 455.945312 C 449.949219 456.515625 448.308594 457.042969 446.65625 457.53125 C 445.007812 458.019531 443.34375 458.46875 441.667969 458.875 C 439.996094 459.285156 438.3125 459.652344 436.621094 459.980469 C 434.925781 460.308594 433.226562 460.597656 431.519531 460.84375 C 429.8125 461.089844 428.101562 461.296875 426.382812 461.460938 C 424.664062 461.625 422.945312 461.75 421.21875 461.832031 C 419.496094 461.914062 417.769531 461.957031 416.046875 461.957031 C 414.320312 461.957031 412.59375 461.914062 410.871094 461.832031 C 409.148438 461.75 407.425781 461.625 405.707031 461.460938 C 403.992188 461.296875 402.277344 461.089844 400.570312 460.84375 C 398.863281 460.597656 397.164062 460.308594 395.472656 459.980469 C 393.777344 459.652344 392.09375 459.285156 390.421875 458.875 C 388.746094 458.46875 387.085938 458.019531 385.433594 457.53125 C 383.78125 457.042969 382.144531 456.515625 380.519531 455.945312 C 378.894531 455.378906 377.28125 454.773438 375.6875 454.132812 C 374.09375 453.488281 372.515625 452.804688 370.957031 452.085938 C 369.394531 451.367188 367.855469 450.609375 366.332031 449.816406 C 364.8125 449.023438 363.308594 448.195312 361.828125 447.328125 C 360.347656 446.464844 358.890625 445.566406 357.457031 444.628906 C 356.019531 443.695312 354.609375 442.726562 353.222656 441.726562 C 351.839844 440.722656 350.476562 439.6875 349.144531 438.621094 C 347.808594 437.554688 346.503906 436.453125 345.222656 435.324219 C 343.945312 434.195312 342.695312 433.035156 341.476562 431.84375 C 340.253906 430.65625 339.066406 429.4375 337.90625 428.191406 C 336.746094 426.945312 335.621094 425.667969 334.523438 424.371094 C 333.429688 423.070312 332.367188 421.742188 331.339844 420.390625 C 330.3125 419.039062 329.320312 417.664062 328.359375 416.265625 C 327.402344 414.867188 326.476562 413.445312 325.589844 412.003906 C 324.703125 410.558594 323.851562 409.09375 323.039062 407.613281 C 322.226562 406.128906 321.449219 404.625 320.710938 403.105469 C 319.972656 401.582031 319.277344 400.046875 318.613281 398.492188 C 317.953125 396.9375 317.332031 395.367188 316.753906 393.785156 C 316.171875 392.199219 315.628906 390.601562 315.128906 388.992188 C 314.628906 387.382812 314.167969 385.761719 313.746094 384.128906 C 313.328125 382.496094 312.949219 380.855469 312.613281 379.203125 C 312.277344 377.554688 311.980469 375.898438 311.730469 374.234375 C 311.476562 372.570312 311.265625 370.898438 311.09375 369.226562 C 310.925781 367.550781 310.800781 365.875 310.714844 364.191406 C 310.628906 362.511719 310.585938 360.832031 310.585938 359.148438 C 310.585938 357.464844 310.628906 355.785156 310.714844 354.101562 C 310.800781 352.421875 310.925781 350.746094 311.09375 349.070312 C 311.265625 347.398438 311.476562 345.726562 311.730469 344.0625 C 311.980469 342.398438 312.277344 340.742188 312.613281 339.089844 C 312.949219 337.441406 313.328125 335.800781 313.746094 334.167969 C 314.167969 332.535156 314.628906 330.914062 315.128906 329.304688 C 315.628906 327.695312 316.171875 326.097656 316.753906 324.511719 C 317.332031 322.929688 317.953125 321.359375 318.613281 319.804688 C 319.277344 318.25 319.972656 316.710938 320.710938 315.191406 C 321.449219 313.671875 322.226562 312.167969 323.039062 310.683594 C 323.851562 309.199219 324.703125 307.738281 325.589844 306.292969 C 326.476562 304.851562 327.402344 303.429688 328.359375 302.03125 C 329.320312 300.632812 330.3125 299.257812 331.339844 297.90625 C 332.367188 296.554688 333.429688 295.226562 334.523438 293.925781 C 335.621094 292.625 336.746094 291.351562 337.90625 290.105469 C 339.066406 288.859375 340.253906 287.640625 341.476562 286.453125 C 342.695312 285.261719 343.945312 284.101562 345.222656 282.972656 C 346.503906 281.84375 347.808594 280.742188 349.144531 279.675781 C 350.476562 278.609375 351.839844 277.574219 353.222656 276.570312 C 354.609375 275.570312 356.019531 274.601562 357.457031 273.664062 C 358.890625 272.730469 360.347656 271.832031 361.828125 270.964844 C 363.308594 270.101562 364.8125 269.273438 366.332031 268.480469 C 367.855469 267.6875 369.394531 266.929688 370.957031 266.210938 C 372.515625 265.492188 374.09375 264.808594 375.6875 264.164062 C 377.28125 263.519531 378.894531 262.914062 380.519531 262.347656 C 382.144531 261.78125 383.78125 261.253906 385.433594 260.765625 C 387.085938 260.277344 388.746094 259.828125 390.421875 259.421875 C 392.09375 259.011719 393.777344 258.644531 395.472656 258.316406 C 397.164062 257.988281 398.863281 257.699219 400.570312 257.453125 C 402.277344 257.207031 403.992188 257 405.707031 256.835938 C 407.425781 256.667969 409.148438 256.546875 410.871094 256.464844 C 412.59375 256.378906 414.320312 256.339844 416.046875 256.339844 C 417.769531 256.339844 419.496094 256.378906 421.21875 256.464844 C 422.945312 256.546875 424.664062 256.667969 426.382812 256.835938 C 428.101562 257 429.8125 257.207031 431.519531 257.453125 C 433.226562 257.699219 434.925781 257.988281 436.621094 258.316406 C 438.3125 258.644531 439.996094 259.011719 441.667969 259.421875 C 443.34375 259.828125 445.007812 260.277344 446.660156 260.765625 C 448.308594 261.253906 449.949219 261.78125 451.574219 262.347656 C 453.199219 262.914062 454.808594 263.519531 456.402344 264.164062 C 457.996094 264.808594 459.574219 265.492188 461.132812 266.210938 C 462.695312 266.929688 464.234375 267.6875 465.757812 268.480469 C 467.28125 269.273438 468.78125 270.101562 470.261719 270.964844 C 471.742188 271.832031 473.199219 272.730469 474.632812 273.664062 C 476.070312 274.601562 477.480469 275.570312 478.867188 276.570312 C 480.253906 277.574219 481.613281 278.609375 482.945312 279.675781 C 484.28125 280.742188 485.585938 281.84375 486.867188 282.972656 C 488.144531 284.101562 489.394531 285.261719 490.617188 286.453125 C 491.835938 287.640625 493.027344 288.859375 494.183594 290.105469 C 495.34375 291.351562 496.46875 292.625 497.566406 293.925781 C 498.660156 295.226562 499.722656 296.554688 500.75 297.90625 C 501.777344 299.257812 502.773438 300.632812 503.730469 302.03125 C 504.6875 303.429688 505.613281 304.851562 506.5 306.292969 C 507.386719 307.738281 508.238281 309.199219 509.050781 310.683594 C 509.863281 312.167969 510.640625 313.671875 511.378906 315.191406 C 512.117188 316.710938 512.816406 318.25 513.476562 319.804688 C 514.136719 321.359375 514.757812 322.929688 515.339844 324.511719 C 515.921875 326.097656 516.460938 327.695312 516.960938 329.304688 C 517.464844 330.914062 517.921875 332.535156 518.34375 334.167969 C 518.761719 335.800781 519.140625 337.441406 519.476562 339.089844 C 519.8125 340.742188 520.109375 342.398438 520.363281 344.0625 C 520.613281 345.726562 520.828125 347.398438 520.996094 349.070312 C 521.164062 350.746094 521.292969 352.421875 521.375 354.101562 C 521.460938 355.785156 521.503906 357.464844 521.503906 359.148438 Z M 521.503906 359.148438 " fill-opacity="1" fill-rule="nonzero"/><path stroke-linecap="round" transform="matrix(1.383781, 0, 0, 1.385376, 59.915535, 42.257171)" fill="none" stroke-linejoin="round" d="M 338.569731 221.299306 L 381.511409 219.249433 " stroke="#fcd031" stroke-width="4.97" stroke-opacity="1" stroke-miterlimit="4"/><path stroke-linecap="round" transform="matrix(1.383781, 0, 0, 1.385376, 59.915535, 42.257171)" fill="none" stroke-linejoin="round" d="M 172.920205 221.299306 L 138.729461 219.249433 " stroke="#fcd031" stroke-width="4.97" stroke-opacity="1" stroke-miterlimit="4"/><path stroke-linecap="round" transform="matrix(1.383781, 0, 0, 1.385376, 59.915535, 42.257171)" fill="none" stroke-linejoin="round" d="M 331.540755 193.449797 C 331.800461 193.159375 354.439972 177.620381 354.439972 177.620381 " stroke="#fcd031" stroke-width="4.97" stroke-opacity="1" stroke-miterlimit="4"/><path stroke-linecap="round" transform="matrix(1.383781, 0, 0, 1.385376, 59.915535, 42.257171)" fill="none" stroke-linejoin="round" d="M 259.150775 110.780997 C 259.320148 111.660723 259.150775 145.369427 259.150775 145.369427 " stroke="#fcd031" stroke-width="4.97" stroke-opacity="1" stroke-miterlimit="4"/><path stroke-linecap="round" transform="matrix(1.383781, 0, 0, 1.385376, 59.915535, 42.257171)" fill="none" stroke-linejoin="round" d="M 301.09033 156.800216 L 315.630994 126.319991 " stroke="#fcd031" stroke-width="4.97" stroke-opacity="1" stroke-miterlimit="4"/><path stroke-linecap="round" transform="matrix(1.383781, 0, 0, 1.385376, 59.915535, 42.257171)" fill="none" stroke-linejoin="round" d="M 317.000091 167.681178 L 331.540755 151.820746 " stroke="#fcd031" stroke-width="4.97" stroke-opacity="1" stroke-miterlimit="4"/><path stroke-linecap="round" transform="matrix(1.383781, 0, 0, 1.385376, 59.915535, 42.257171)" fill="none" stroke-linejoin="round" d="M 285.908871 147.128878 L 289.030979 128.070983 " stroke="#fcd031" stroke-width="4.97" stroke-opacity="1" stroke-miterlimit="4"/><path stroke-linecap="round" transform="matrix(1.383781, 0, 0, 1.385376, 59.915535, 42.257171)" fill="none" stroke-linejoin="round" d="M 177.848957 193.449797 C 177.589252 193.159375 154.94974 177.620381 154.94974 177.620381 " stroke="#fcd031" stroke-width="4.97" stroke-opacity="1" stroke-miterlimit="4"/><path stroke-linecap="round" transform="matrix(1.383781, 0, 0, 1.385376, 59.915535, 42.257171)" fill="none" stroke-linejoin="round" d="M 208.310674 156.800216 L 193.77001 126.319991 " stroke="#fcd031" stroke-width="4.97" stroke-opacity="1" stroke-miterlimit="4"/><path stroke-linecap="round" transform="matrix(1.383781, 0, 0, 1.385376, 59.915535, 42.257171)" fill="none" stroke-linejoin="round" d="M 192.389621 167.681178 L 177.848957 151.820746 " stroke="#fcd031" stroke-width="4.97" stroke-opacity="1" stroke-miterlimit="4"/><path stroke-linecap="round" transform="matrix(1.383781, 0, 0, 1.385376, 59.915535, 42.257171)" fill="none" stroke-linejoin="round" d="M 228.330552 147.128878 L 220.358734 128.070983 " stroke="#fcd031" stroke-width="4.97" stroke-opacity="1" stroke-miterlimit="4"/><path stroke-linecap="round" transform="matrix(1.383781, 0, 0, 1.385376, 59.915535, 42.257171)" fill="none" stroke-linejoin="round" d="M 331.540755 261.749751 L 354.439972 277.579167 " stroke="#fcd031" stroke-width="4.97" stroke-opacity="1" stroke-miterlimit="4"/><path stroke-linecap="round" transform="matrix(1.383781, 0, 0, 1.385376, 59.915535, 42.257171)" fill="none" stroke-linejoin="round" d="M 340.590914 240.501002 C 340.269106 240.269792 372.249534 245.359228 372.249534 245.359228 " stroke="#fcd031" stroke-width="4.97" stroke-opacity="1" stroke-miterlimit="4"/><path stroke-linecap="round" transform="matrix(1.383781, 0, 0, 1.385376, 59.915535, 42.257171)" fill="none" stroke-linejoin="round" d="M 259.150775 344.42137 C 259.320148 343.538826 259.150775 309.830121 259.150775 309.830121 " stroke="#fcd031" stroke-width="4.97" stroke-opacity="1" stroke-miterlimit="4"/><path stroke-linecap="round" transform="matrix(1.383781, 0, 0, 1.385376, 59.915535, 42.257171)" fill="none" stroke-linejoin="round" d="M 301.09033 298.399332 L 315.630994 328.890836 " stroke="#fcd031" stroke-width="4.97" stroke-opacity="1" stroke-miterlimit="4"/><path stroke-linecap="round" transform="matrix(1.383781, 0, 0, 1.385376, 59.915535, 42.257171)" fill="none" stroke-linejoin="round" d="M 324.269012 285.180895 L 338.820968 300.999033 " stroke="#fcd031" stroke-width="4.97" stroke-opacity="1" stroke-miterlimit="4"/><path stroke-linecap="round" transform="matrix(1.383781, 0, 0, 1.385376, 59.915535, 42.257171)" fill="none" stroke-linejoin="round" d="M 285.908871 308.070671 L 289.030979 327.131385 " stroke="#fcd031" stroke-width="4.97" stroke-opacity="1" stroke-miterlimit="4"/><path stroke-linecap="round" transform="matrix(1.383781, 0, 0, 1.385376, 59.915535, 42.257171)" fill="none" stroke-linejoin="round" d="M 177.848957 261.749751 C 177.589252 262.040173 154.94974 277.579167 154.94974 277.579167 " stroke="#fcd031" stroke-width="4.97" stroke-opacity="1" stroke-miterlimit="4"/><path stroke-linecap="round" transform="matrix(1.383781, 0, 0, 1.385376, 59.915535, 42.257171)" fill="none" stroke-linejoin="round" d="M 208.310674 298.399332 L 193.77001 328.890836 " stroke="#fcd031" stroke-width="4.97" stroke-opacity="1" stroke-miterlimit="4"/><path stroke-linecap="round" transform="matrix(1.383781, 0, 0, 1.385376, 59.915535, 42.257171)" fill="none" stroke-linejoin="round" d="M 192.389621 287.52119 L 177.848957 303.378802 " stroke="#fcd031" stroke-width="4.97" stroke-opacity="1" stroke-miterlimit="4"/><path stroke-linecap="round" transform="matrix(1.383781, 0, 0, 1.385376, 59.915535, 42.257171)" fill="none" stroke-linejoin="round" d="M 228.330552 308.070671 L 220.358734 327.131385 " stroke="#fcd031" stroke-width="4.97" stroke-opacity="1" stroke-miterlimit="4"/><path stroke-linecap="round" transform="matrix(1.383781, 0, 0, 1.385376, 59.915535, 42.257171)" fill="none" stroke-linejoin="round" d="M 142.740776 249.129077 L 175.929397 241.600658 " stroke="#fcd031" stroke-width="4.97" stroke-opacity="1" stroke-miterlimit="4"/><path fill="#dcf5fa" d="M 482.980469 493.53125 C 482.980469 495.398438 482.90625 497.269531 482.765625 499.132812 C 482.621094 501 482.40625 502.855469 482.121094 504.703125 C 481.832031 506.550781 481.476562 508.386719 481.050781 510.207031 C 480.621094 512.03125 480.125 513.832031 479.558594 515.613281 C 478.992188 517.398438 478.359375 519.15625 477.660156 520.890625 C 476.957031 522.625 476.191406 524.328125 475.359375 526.003906 C 474.527344 527.679688 473.632812 529.320312 472.675781 530.925781 C 471.714844 532.53125 470.699219 534.097656 469.617188 535.625 C 468.539062 537.152344 467.402344 538.636719 466.210938 540.078125 C 465.019531 541.515625 463.773438 542.910156 462.472656 544.253906 C 461.171875 545.597656 459.824219 546.890625 458.425781 548.128906 C 457.027344 549.367188 455.582031 550.554688 454.089844 551.683594 C 452.601562 552.8125 451.070312 553.878906 449.496094 554.890625 C 447.925781 555.902344 446.316406 556.851562 444.671875 557.738281 C 443.023438 558.625 441.347656 559.445312 439.640625 560.203125 C 437.929688 560.960938 436.195312 561.652344 434.433594 562.273438 C 432.671875 562.898438 430.890625 563.453125 429.085938 563.941406 C 427.28125 564.425781 425.460938 564.84375 423.625 565.1875 C 421.789062 565.535156 419.941406 565.808594 418.082031 566.015625 C 416.226562 566.21875 414.363281 566.351562 412.496094 566.410156 C 410.628906 566.46875 408.761719 566.457031 406.894531 566.375 C 405.027344 566.292969 403.167969 566.136719 401.3125 565.910156 C 399.457031 565.683594 397.613281 565.382812 395.78125 565.015625 C 393.949219 564.644531 392.136719 564.207031 390.335938 563.699219 C 388.539062 563.1875 386.761719 562.613281 385.011719 561.964844 C 383.257812 561.320312 381.53125 560.609375 379.832031 559.828125 C 378.132812 559.050781 376.464844 558.207031 374.832031 557.300781 C 373.195312 556.394531 371.601562 555.425781 370.039062 554.394531 C 368.480469 553.363281 366.964844 552.273438 365.488281 551.128906 C 364.011719 549.980469 362.582031 548.777344 361.199219 547.519531 C 359.816406 546.261719 358.480469 544.953125 357.199219 543.59375 C 355.914062 542.234375 354.6875 540.828125 353.511719 539.371094 C 340.4375 558.890625 317.726562 566.816406 292.984375 571.734375 C 264.480469 577.414062 244.980469 558.089844 237.21875 555.261719 C 212.65625 572.082031 183.945312 584.089844 141.503906 580.972656 C 87.980469 577.011719 70.015625 548.015625 72.371094 518.382812 C 74.777344 487.449219 99.367188 455.847656 128.660156 451.609375 C 129.023438 450.25 129.421875 448.902344 129.859375 447.566406 C 130.296875 446.230469 130.773438 444.910156 131.289062 443.601562 C 131.800781 442.296875 132.355469 441.003906 132.941406 439.726562 C 133.53125 438.453125 134.15625 437.195312 134.820312 435.953125 C 135.480469 434.714844 136.175781 433.496094 136.910156 432.296875 C 137.640625 431.097656 138.40625 429.917969 139.207031 428.765625 C 140.007812 427.609375 140.839844 426.476562 141.707031 425.371094 C 142.570312 424.265625 143.46875 423.183594 144.394531 422.128906 C 145.320312 421.074219 146.28125 420.046875 147.265625 419.046875 C 148.253906 418.046875 149.269531 417.078125 150.3125 416.136719 C 151.355469 415.195312 152.421875 414.285156 153.519531 413.40625 C 154.613281 412.527344 155.734375 411.679688 156.878906 410.867188 C 158.023438 410.050781 159.191406 409.273438 160.378906 408.527344 C 161.570312 407.777344 162.777344 407.066406 164.007812 406.390625 C 165.238281 405.714844 166.488281 405.074219 167.757812 404.46875 C 169.023438 403.863281 170.308594 403.296875 171.609375 402.765625 C 172.90625 402.238281 174.222656 401.746094 175.550781 401.292969 C 176.878906 400.835938 178.21875 400.421875 179.574219 400.046875 C 180.925781 399.667969 182.289062 399.332031 183.660156 399.035156 C 185.03125 398.738281 186.410156 398.480469 187.796875 398.261719 C 189.183594 398.042969 190.578125 397.867188 191.972656 397.730469 C 193.371094 397.589844 194.773438 397.496094 196.175781 397.4375 C 197.578125 397.382812 198.980469 397.367188 200.382812 397.390625 C 201.789062 397.417969 203.191406 397.480469 204.589844 397.589844 C 205.988281 397.695312 207.386719 397.839844 208.777344 398.027344 C 210.167969 398.214844 211.550781 398.441406 212.929688 398.707031 C 214.308594 398.976562 215.679688 399.28125 217.039062 399.628906 C 218.398438 399.972656 219.75 400.359375 221.089844 400.785156 C 222.425781 401.207031 223.75 401.671875 225.0625 402.171875 C 226.375 402.671875 227.671875 403.210938 228.953125 403.785156 C 230.230469 404.363281 231.496094 404.976562 232.742188 405.625 C 233.984375 406.273438 235.210938 406.957031 236.417969 407.675781 C 236.546875 406.472656 236.707031 405.273438 236.898438 404.078125 C 237.089844 402.882812 237.308594 401.691406 237.558594 400.507812 C 237.808594 399.320312 238.089844 398.144531 238.398438 396.972656 C 238.707031 395.800781 239.042969 394.640625 239.410156 393.484375 C 239.777344 392.332031 240.171875 391.1875 240.59375 390.054688 C 241.015625 388.917969 241.46875 387.796875 241.945312 386.683594 C 242.425781 385.570312 242.933594 384.472656 243.464844 383.386719 C 244 382.300781 244.5625 381.226562 245.148438 380.167969 C 245.734375 379.109375 246.347656 378.066406 246.988281 377.039062 C 247.628906 376.007812 248.292969 375 248.980469 374.003906 C 249.671875 373.007812 250.382812 372.03125 251.121094 371.070312 C 251.859375 370.113281 252.621094 369.171875 253.40625 368.25 C 254.191406 367.328125 255 366.429688 255.828125 365.546875 C 256.660156 364.664062 257.511719 363.804688 258.382812 362.96875 C 259.253906 362.128906 260.148438 361.3125 261.0625 360.519531 C 261.976562 359.722656 262.90625 358.953125 263.859375 358.207031 C 264.808594 357.457031 265.78125 356.734375 266.769531 356.035156 C 267.753906 355.335938 268.757812 354.664062 269.78125 354.011719 C 270.800781 353.363281 271.839844 352.742188 272.890625 352.144531 C 273.941406 351.546875 275.007812 350.976562 276.089844 350.429688 C 277.171875 349.886719 278.265625 349.371094 279.371094 348.878906 C 280.476562 348.390625 281.59375 347.929688 282.722656 347.496094 C 283.851562 347.0625 284.992188 346.65625 286.140625 346.277344 C 287.289062 345.902344 288.449219 345.554688 289.617188 345.234375 C 290.78125 344.914062 291.957031 344.625 293.136719 344.363281 C 294.320312 344.105469 295.507812 343.871094 296.699219 343.671875 C 297.890625 343.46875 299.089844 343.296875 300.289062 343.15625 C 301.492188 343.015625 302.695312 342.902344 303.902344 342.820312 C 305.109375 342.738281 306.316406 342.6875 307.527344 342.664062 C 308.734375 342.644531 309.945312 342.652344 311.152344 342.691406 C 312.363281 342.730469 313.570312 342.800781 314.773438 342.898438 C 315.980469 342.996094 317.183594 343.125 318.382812 343.285156 C 319.582031 343.445312 320.777344 343.632812 321.964844 343.851562 C 323.15625 344.070312 324.339844 344.320312 325.515625 344.597656 C 326.691406 344.875 327.863281 345.179688 329.023438 345.515625 C 330.1875 345.851562 331.339844 346.21875 332.484375 346.613281 C 333.628906 347.003906 334.761719 347.425781 335.882812 347.878906 C 337.007812 348.328125 338.117188 348.804688 339.21875 349.308594 C 340.316406 349.816406 341.402344 350.347656 342.476562 350.90625 C 343.546875 351.46875 344.605469 352.054688 345.648438 352.667969 C 346.691406 353.277344 347.71875 353.917969 348.730469 354.582031 C 349.742188 355.242188 350.738281 355.933594 351.714844 356.644531 C 352.695312 357.359375 353.652344 358.097656 354.59375 358.859375 C 355.535156 359.617188 356.457031 360.402344 357.355469 361.210938 C 358.257812 362.015625 359.140625 362.847656 360 363.695312 C 360.859375 364.546875 361.699219 365.421875 362.515625 366.3125 C 363.335938 367.207031 364.128906 368.117188 364.898438 369.050781 C 365.671875 369.984375 366.417969 370.933594 367.144531 371.90625 C 367.867188 372.875 368.566406 373.863281 369.242188 374.867188 C 369.917969 375.871094 370.570312 376.890625 371.191406 377.929688 C 371.816406 378.964844 372.414062 380.019531 372.988281 381.085938 C 373.558594 382.152344 374.105469 383.234375 374.621094 384.328125 C 375.140625 385.421875 375.632812 386.527344 376.09375 387.648438 C 376.558594 388.765625 376.992188 389.894531 377.398438 391.035156 C 377.808594 392.175781 378.183594 393.324219 378.535156 394.484375 C 378.886719 395.644531 379.207031 396.8125 379.496094 397.988281 C 379.789062 399.160156 380.050781 400.34375 380.285156 401.53125 C 380.515625 402.71875 380.71875 403.914062 380.894531 405.113281 C 381.066406 406.308594 381.210938 407.511719 381.324219 408.71875 C 381.4375 409.921875 381.519531 411.132812 381.574219 412.339844 C 381.628906 413.550781 381.652344 414.761719 381.644531 415.972656 C 381.636719 417.183594 381.601562 418.394531 381.535156 419.601562 C 381.46875 420.8125 381.371094 422.019531 381.242188 423.222656 C 381.117188 424.425781 380.960938 425.628906 380.773438 426.824219 C 382.152344 426.214844 383.546875 425.644531 384.964844 425.121094 C 386.378906 424.597656 387.804688 424.117188 389.25 423.683594 C 390.695312 423.25 392.152344 422.859375 393.617188 422.515625 C 395.085938 422.171875 396.566406 421.871094 398.050781 421.621094 C 399.539062 421.367188 401.03125 421.164062 402.53125 421.003906 C 404.03125 420.84375 405.535156 420.730469 407.039062 420.664062 C 408.546875 420.597656 410.054688 420.578125 411.5625 420.609375 C 413.070312 420.636719 414.574219 420.710938 416.078125 420.832031 C 417.582031 420.953125 419.078125 421.121094 420.570312 421.335938 C 422.0625 421.550781 423.550781 421.8125 425.023438 422.117188 C 426.5 422.425781 427.96875 422.777344 429.421875 423.175781 C 430.875 423.574219 432.316406 424.015625 433.746094 424.503906 C 435.171875 424.992188 436.582031 425.523438 437.976562 426.101562 C 439.371094 426.675781 440.746094 427.292969 442.101562 427.957031 C 443.457031 428.617188 444.789062 429.320312 446.101562 430.0625 C 447.414062 430.808594 448.703125 431.589844 449.964844 432.417969 C 451.230469 433.242188 452.464844 434.101562 453.675781 435.003906 C 454.886719 435.90625 456.066406 436.84375 457.21875 437.816406 C 458.371094 438.792969 459.488281 439.800781 460.578125 440.847656 C 461.667969 441.890625 462.722656 442.96875 463.746094 444.078125 C 464.769531 445.1875 465.753906 446.328125 466.707031 447.5 C 467.65625 448.671875 468.570312 449.871094 469.449219 451.097656 C 470.324219 452.328125 471.164062 453.582031 471.960938 454.863281 C 472.761719 456.144531 473.519531 457.445312 474.238281 458.773438 C 474.957031 460.101562 475.632812 461.449219 476.265625 462.820312 C 476.898438 464.191406 477.492188 465.578125 478.039062 466.984375 C 478.589844 468.390625 479.09375 469.8125 479.550781 471.25 C 480.011719 472.6875 480.425781 474.140625 480.796875 475.601562 C 481.167969 477.066406 481.492188 478.539062 481.769531 480.023438 C 482.046875 481.507812 482.28125 483 482.464844 484.496094 C 482.652344 485.996094 482.789062 487.496094 482.882812 489.003906 C 482.976562 490.511719 483.019531 492.019531 483.019531 493.53125 Z M 482.980469 493.53125 " fill-opacity="1" fill-rule="nonzero"/><g clip-path="url(#1a7ddbe217)"><path fill="#dcf5fa" d="M 739.585938 508.285156 C 739.585938 509.824219 739.527344 511.363281 739.410156 512.902344 C 739.292969 514.4375 739.117188 515.96875 738.878906 517.492188 C 738.644531 519.015625 738.351562 520.527344 738 522.03125 C 737.644531 523.53125 737.238281 525.015625 736.769531 526.484375 C 736.304688 527.953125 735.78125 529.402344 735.203125 530.832031 C 734.628906 532.261719 733.996094 533.664062 733.308594 535.046875 C 732.625 536.425781 731.886719 537.777344 731.097656 539.101562 C 730.308594 540.425781 729.46875 541.71875 728.578125 542.976562 C 727.691406 544.234375 726.753906 545.457031 725.773438 546.644531 C 724.789062 547.832031 723.761719 548.980469 722.691406 550.085938 C 721.621094 551.195312 720.507812 552.257812 719.355469 553.28125 C 718.203125 554.300781 717.011719 555.277344 715.785156 556.207031 C 714.554688 557.140625 713.292969 558.019531 711.996094 558.851562 C 710.703125 559.6875 709.375 560.46875 708.019531 561.199219 C 706.664062 561.929688 705.28125 562.605469 703.875 563.230469 C 702.464844 563.855469 701.035156 564.425781 699.585938 564.9375 C 698.132812 565.453125 696.664062 565.910156 695.175781 566.3125 C 693.691406 566.710938 692.191406 567.054688 690.675781 567.339844 C 689.164062 567.625 687.640625 567.851562 686.109375 568.019531 C 684.578125 568.1875 683.042969 568.296875 681.503906 568.347656 C 679.964844 568.394531 678.425781 568.386719 676.890625 568.316406 C 675.351562 568.25 673.816406 568.121094 672.289062 567.933594 C 670.761719 567.746094 669.242188 567.5 667.730469 567.195312 C 666.222656 566.894531 664.726562 566.53125 663.246094 566.113281 C 661.761719 565.691406 660.300781 565.214844 658.855469 564.683594 C 657.410156 564.152344 655.988281 563.566406 654.585938 562.921875 C 653.1875 562.28125 651.8125 561.585938 650.464844 560.839844 C 649.121094 560.089844 647.804688 559.292969 646.519531 558.441406 C 645.234375 557.59375 643.980469 556.695312 642.765625 555.75 C 641.550781 554.804688 640.371094 553.816406 639.230469 552.777344 C 638.089844 551.742188 636.992188 550.664062 635.933594 549.542969 C 634.878906 548.421875 633.867188 547.261719 632.898438 546.0625 C 622.117188 562.148438 603.410156 568.671875 583.082031 572.730469 C 559.558594 577.414062 543.519531 561.480469 537.125 559.15625 C 516.894531 573.007812 493.21875 582.914062 458.25 580.335938 C 414.136719 577.082031 399.34375 553.167969 401.253906 528.757812 C 403.230469 503.269531 423.503906 477.222656 447.636719 473.734375 C 447.933594 472.613281 448.261719 471.503906 448.625 470.402344 C 448.984375 469.300781 449.378906 468.210938 449.800781 467.136719 C 450.222656 466.058594 450.679688 464.992188 451.164062 463.941406 C 451.648438 462.890625 452.164062 461.851562 452.710938 460.832031 C 453.253906 459.808594 453.828125 458.804688 454.433594 457.816406 C 455.035156 456.828125 455.667969 455.859375 456.324219 454.90625 C 456.984375 453.953125 457.671875 453.023438 458.382812 452.109375 C 459.097656 451.199219 459.835938 450.308594 460.601562 449.4375 C 461.363281 448.566406 462.152344 447.722656 462.964844 446.898438 C 463.78125 446.074219 464.617188 445.273438 465.476562 444.5 C 466.335938 443.722656 467.214844 442.972656 468.121094 442.25 C 469.023438 441.523438 469.945312 440.828125 470.886719 440.15625 C 471.832031 439.484375 472.792969 438.839844 473.773438 438.226562 C 474.753906 437.609375 475.75 437.023438 476.765625 436.46875 C 477.777344 435.910156 478.808594 435.382812 479.851562 434.882812 C 480.898438 434.386719 481.953125 433.917969 483.027344 433.480469 C 484.097656 433.042969 485.179688 432.640625 486.277344 432.265625 C 487.371094 431.890625 488.476562 431.546875 489.589844 431.238281 C 490.703125 430.929688 491.828125 430.648438 492.957031 430.40625 C 494.089844 430.160156 495.226562 429.949219 496.367188 429.769531 C 497.511719 429.589844 498.660156 429.441406 499.808594 429.328125 C 500.960938 429.214844 502.117188 429.136719 503.273438 429.089844 C 504.425781 429.042969 505.585938 429.03125 506.742188 429.050781 C 507.898438 429.074219 509.054688 429.125 510.207031 429.214844 C 511.359375 429.300781 512.511719 429.421875 513.65625 429.578125 C 514.804688 429.730469 515.945312 429.917969 517.082031 430.136719 C 518.214844 430.359375 519.34375 430.609375 520.464844 430.894531 C 521.585938 431.183594 522.699219 431.5 523.804688 431.847656 C 524.90625 432.199219 525.996094 432.582031 527.078125 432.992188 C 528.160156 433.40625 529.226562 433.851562 530.28125 434.324219 C 531.339844 434.800781 532.378906 435.304688 533.40625 435.839844 C 534.429688 436.375 535.441406 436.9375 536.433594 437.53125 C 536.691406 435.582031 537.042969 433.644531 537.488281 431.726562 C 537.9375 429.808594 538.476562 427.917969 539.109375 426.054688 C 539.742188 424.191406 540.460938 422.363281 541.273438 420.566406 C 542.085938 418.773438 542.984375 417.027344 543.96875 415.320312 C 544.953125 413.617188 546.015625 411.960938 547.164062 410.363281 C 548.308594 408.761719 549.53125 407.222656 550.828125 405.742188 C 552.125 404.261719 553.492188 402.847656 554.925781 401.503906 C 556.363281 400.15625 557.863281 398.886719 559.421875 397.6875 C 560.984375 396.492188 562.597656 395.371094 564.269531 394.332031 C 565.941406 393.292969 567.65625 392.339844 569.421875 391.46875 C 571.1875 390.597656 572.988281 389.816406 574.832031 389.125 C 576.671875 388.433594 578.542969 387.832031 580.441406 387.324219 C 582.34375 386.816406 584.261719 386.402344 586.203125 386.082031 C 588.144531 385.761719 590.09375 385.539062 592.058594 385.410156 C 594.019531 385.285156 595.984375 385.253906 597.949219 385.320312 C 599.917969 385.382812 601.875 385.546875 603.824219 385.804688 C 605.773438 386.0625 607.707031 386.417969 609.621094 386.867188 C 611.535156 387.316406 613.425781 387.855469 615.285156 388.492188 C 617.148438 389.125 618.972656 389.851562 620.765625 390.664062 C 622.554688 391.476562 624.300781 392.378906 626.003906 393.363281 C 627.707031 394.351562 629.355469 395.417969 630.953125 396.566406 C 632.550781 397.714844 634.089844 398.941406 635.566406 400.238281 C 637.042969 401.539062 638.453125 402.910156 639.796875 404.347656 C 641.140625 405.785156 642.410156 407.285156 643.605469 408.851562 C 644.800781 410.414062 645.914062 412.03125 646.953125 413.707031 C 647.988281 415.378906 648.941406 417.097656 649.808594 418.867188 C 650.675781 420.632812 651.457031 422.4375 652.144531 424.28125 C 652.835938 426.125 653.433594 428 653.941406 429.902344 C 654.449219 431.804688 654.859375 433.726562 655.175781 435.671875 C 655.496094 437.613281 655.714844 439.566406 655.84375 441.53125 C 655.96875 443.5 655.996094 445.464844 655.929688 447.433594 C 655.863281 449.398438 655.699219 451.359375 655.441406 453.3125 C 656.574219 452.808594 657.726562 452.339844 658.890625 451.910156 C 660.058594 451.476562 661.234375 451.082031 662.425781 450.722656 C 663.617188 450.367188 664.816406 450.042969 666.027344 449.761719 C 667.234375 449.476562 668.453125 449.230469 669.679688 449.023438 C 670.902344 448.8125 672.132812 448.644531 673.371094 448.511719 C 674.605469 448.382812 675.84375 448.289062 677.085938 448.234375 C 678.328125 448.179688 679.570312 448.164062 680.8125 448.1875 C 682.054688 448.210938 683.296875 448.269531 684.535156 448.371094 C 685.773438 448.472656 687.007812 448.609375 688.238281 448.785156 C 689.46875 448.964844 690.691406 449.179688 691.90625 449.429688 C 693.125 449.683594 694.332031 449.972656 695.53125 450.300781 C 696.730469 450.628906 697.917969 450.996094 699.09375 451.398438 C 700.269531 451.800781 701.433594 452.238281 702.582031 452.710938 C 703.730469 453.1875 704.863281 453.695312 705.980469 454.242188 C 707.097656 454.785156 708.195312 455.367188 709.277344 455.976562 C 710.359375 456.589844 711.421875 457.238281 712.460938 457.917969 C 713.503906 458.597656 714.523438 459.308594 715.519531 460.050781 C 716.515625 460.792969 717.488281 461.566406 718.4375 462.371094 C 719.386719 463.171875 720.3125 464.003906 721.207031 464.863281 C 722.105469 465.726562 722.976562 466.613281 723.816406 467.527344 C 724.660156 468.441406 725.472656 469.382812 726.257812 470.347656 C 727.042969 471.3125 727.792969 472.304688 728.515625 473.316406 C 729.238281 474.328125 729.929688 475.363281 730.589844 476.417969 C 731.246094 477.472656 731.871094 478.546875 732.464844 479.640625 C 733.054688 480.734375 733.613281 481.847656 734.136719 482.976562 C 734.65625 484.105469 735.144531 485.246094 735.597656 486.40625 C 736.046875 487.566406 736.464844 488.738281 736.84375 489.921875 C 737.222656 491.109375 737.5625 492.304688 737.867188 493.511719 C 738.171875 494.714844 738.4375 495.929688 738.667969 497.152344 C 738.898438 498.375 739.089844 499.605469 739.242188 500.839844 C 739.394531 502.074219 739.507812 503.3125 739.585938 504.554688 C 739.660156 505.796875 739.699219 507.039062 739.699219 508.285156 Z M 739.585938 508.285156 " fill-opacity="1" fill-rule="nonzero"/></g><path fill="#dcf5fa" d="M 580.992188 420.9375 C 580.992188 422.839844 580.84375 424.734375 580.554688 426.613281 C 580.261719 428.496094 579.828125 430.34375 579.25 432.160156 C 578.675781 433.976562 577.964844 435.734375 577.117188 437.441406 C 576.269531 439.144531 575.296875 440.777344 574.199219 442.332031 C 573.097656 443.886719 571.886719 445.347656 570.566406 446.714844 C 569.242188 448.082031 567.820312 449.34375 566.304688 450.492188 C 564.789062 451.640625 563.191406 452.667969 561.515625 453.570312 C 559.84375 454.472656 558.109375 455.242188 556.316406 455.875 C 554.523438 456.511719 552.691406 457.003906 550.820312 457.359375 C 548.953125 457.710938 547.066406 457.917969 545.164062 457.980469 C 543.265625 458.042969 541.371094 457.957031 539.480469 457.726562 C 537.59375 457.496094 535.734375 457.125 533.902344 456.605469 C 532.070312 456.089844 530.292969 455.433594 528.5625 454.640625 C 526.832031 453.851562 525.171875 452.929688 523.585938 451.882812 C 521.996094 450.832031 520.496094 449.671875 519.089844 448.390625 C 517.679688 447.113281 516.375 445.730469 515.179688 444.25 C 508.539062 454.171875 496.984375 458.203125 484.402344 460.710938 C 469.914062 463.589844 459.996094 453.78125 456.050781 452.398438 C 443.597656 460.945312 428.96875 467.054688 407.398438 465.460938 C 380.179688 463.453125 371.058594 448.699219 372.234375 433.597656 C 373.453125 417.875 385.960938 401.804688 400.851562 399.640625 C 401.035156 398.949219 401.238281 398.265625 401.460938 397.585938 C 401.679688 396.90625 401.921875 396.234375 402.183594 395.566406 C 402.445312 394.902344 402.726562 394.242188 403.023438 393.59375 C 403.324219 392.945312 403.640625 392.304688 403.976562 391.671875 C 404.316406 391.042969 404.667969 390.421875 405.039062 389.808594 C 405.414062 389.199219 405.800781 388.601562 406.210938 388.011719 C 406.617188 387.421875 407.039062 386.847656 407.480469 386.285156 C 407.917969 385.71875 408.375 385.171875 408.847656 384.632812 C 409.320312 384.097656 409.804688 383.574219 410.308594 383.0625 C 410.8125 382.554688 411.328125 382.0625 411.859375 381.582031 C 412.386719 381.101562 412.933594 380.640625 413.488281 380.191406 C 414.046875 379.746094 414.617188 379.3125 415.199219 378.898438 C 415.78125 378.484375 416.375 378.085938 416.980469 377.707031 C 417.585938 377.328125 418.203125 376.964844 418.828125 376.621094 C 419.453125 376.277344 420.089844 375.949219 420.734375 375.640625 C 421.378906 375.335938 422.035156 375.046875 422.695312 374.777344 C 423.359375 374.507812 424.027344 374.257812 424.703125 374.023438 C 425.378906 373.792969 426.0625 373.582031 426.75 373.390625 C 427.4375 373.199219 428.132812 373.027344 428.832031 372.878906 C 429.527344 372.726562 430.230469 372.59375 430.9375 372.484375 C 431.644531 372.375 432.351562 372.285156 433.0625 372.214844 C 433.773438 372.144531 434.484375 372.097656 435.199219 372.066406 C 435.914062 372.039062 436.628906 372.03125 437.34375 372.046875 C 438.058594 372.058594 438.769531 372.09375 439.484375 372.144531 C 440.195312 372.199219 440.90625 372.277344 441.613281 372.371094 C 442.320312 372.46875 443.027344 372.582031 443.726562 372.71875 C 444.429688 372.855469 445.125 373.011719 445.820312 373.1875 C 446.511719 373.367188 447.199219 373.5625 447.878906 373.78125 C 448.558594 373.996094 449.234375 374.230469 449.902344 374.488281 C 450.570312 374.742188 451.226562 375.019531 451.878906 375.3125 C 452.53125 375.605469 453.171875 375.917969 453.808594 376.25 C 454.441406 376.582031 455.0625 376.929688 455.675781 377.296875 C 455.78125 376.050781 455.949219 374.8125 456.179688 373.582031 C 456.410156 372.351562 456.699219 371.140625 457.054688 369.9375 C 457.40625 368.738281 457.820312 367.558594 458.289062 366.402344 C 458.761719 365.242188 459.292969 364.113281 459.878906 363.007812 C 460.464844 361.902344 461.105469 360.832031 461.800781 359.792969 C 462.496094 358.753906 463.242188 357.75 464.035156 356.789062 C 464.832031 355.824219 465.675781 354.902344 466.5625 354.023438 C 467.453125 353.144531 468.382812 352.3125 469.359375 351.527344 C 470.332031 350.746094 471.339844 350.011719 472.390625 349.328125 C 473.4375 348.648438 474.515625 348.019531 475.625 347.449219 C 476.738281 346.875 477.875 346.359375 479.035156 345.902344 C 480.199219 345.445312 481.382812 345.050781 482.585938 344.710938 C 483.789062 344.375 485.003906 344.097656 486.234375 343.882812 C 487.464844 343.667969 488.707031 343.519531 489.953125 343.429688 C 491.199219 343.339844 492.445312 343.316406 493.695312 343.351562 C 494.941406 343.390625 496.1875 343.492188 497.425781 343.65625 C 498.664062 343.820312 499.890625 344.046875 501.105469 344.332031 C 502.320312 344.621094 503.519531 344.96875 504.699219 345.378906 C 505.878906 345.789062 507.039062 346.257812 508.171875 346.785156 C 509.304688 347.3125 510.40625 347.894531 511.480469 348.53125 C 512.554688 349.171875 513.59375 349.863281 514.601562 350.605469 C 515.605469 351.351562 516.566406 352.144531 517.492188 352.984375 C 518.417969 353.824219 519.296875 354.710938 520.128906 355.644531 C 520.964844 356.574219 521.75 357.542969 522.488281 358.554688 C 523.222656 359.566406 523.90625 360.609375 524.539062 361.6875 C 525.167969 362.769531 525.742188 363.878906 526.261719 365.015625 C 526.78125 366.152344 527.242188 367.3125 527.644531 368.5 C 528.042969 369.683594 528.386719 370.886719 528.664062 372.105469 C 528.945312 373.324219 529.164062 374.554688 529.316406 375.792969 C 529.472656 377.035156 529.566406 378.28125 529.59375 379.53125 C 529.625 380.78125 529.589844 382.03125 529.496094 383.277344 C 529.398438 384.523438 529.238281 385.761719 529.015625 386.992188 C 529.71875 386.683594 530.429688 386.394531 531.148438 386.128906 C 531.867188 385.863281 532.59375 385.617188 533.328125 385.398438 C 534.0625 385.175781 534.800781 384.976562 535.546875 384.804688 C 536.292969 384.628906 537.046875 384.476562 537.800781 384.347656 C 538.558594 384.21875 539.316406 384.113281 540.078125 384.035156 C 540.839844 383.953125 541.605469 383.894531 542.371094 383.863281 C 543.136719 383.828125 543.902344 383.816406 544.667969 383.832031 C 545.4375 383.847656 546.203125 383.882812 546.964844 383.945312 C 547.730469 384.007812 548.492188 384.09375 549.25 384.203125 C 550.007812 384.3125 550.765625 384.445312 551.515625 384.601562 C 552.265625 384.757812 553.011719 384.933594 553.75 385.136719 C 554.488281 385.339844 555.222656 385.566406 555.949219 385.8125 C 556.671875 386.0625 557.390625 386.332031 558.097656 386.625 C 558.808594 386.917969 559.507812 387.230469 560.195312 387.566406 C 560.886719 387.902344 561.5625 388.261719 562.230469 388.640625 C 562.898438 389.019531 563.550781 389.417969 564.195312 389.835938 C 564.835938 390.253906 565.464844 390.691406 566.078125 391.152344 C 566.695312 391.609375 567.296875 392.085938 567.878906 392.582031 C 568.464844 393.078125 569.035156 393.589844 569.589844 394.121094 C 570.144531 394.652344 570.679688 395.199219 571.199219 395.765625 C 571.71875 396.328125 572.21875 396.910156 572.703125 397.503906 C 573.1875 398.101562 573.652344 398.710938 574.097656 399.335938 C 574.542969 399.960938 574.96875 400.597656 575.375 401.25 C 575.78125 401.898438 576.167969 402.5625 576.53125 403.238281 C 576.894531 403.914062 577.238281 404.597656 577.5625 405.292969 C 577.886719 405.992188 578.183594 406.695312 578.464844 407.410156 C 578.742188 408.128906 579 408.851562 579.230469 409.582031 C 579.464844 410.3125 579.675781 411.050781 579.863281 411.792969 C 580.050781 412.539062 580.214844 413.289062 580.359375 414.042969 C 580.5 414.796875 580.617188 415.554688 580.710938 416.316406 C 580.804688 417.078125 580.875 417.839844 580.921875 418.609375 C 580.96875 419.375 580.992188 420.140625 580.992188 420.90625 Z M 580.992188 420.9375 " fill-opacity="1" fill-rule="nonzero"/></svg>